<mxfile host="Electron" modified="2023-08-09T14:16:39.543Z" agent="Mozilla/5.0 (Windows NT 10.0; Win64; x64) AppleWebKit/537.36 (KHTML, like Gecko) draw.io/21.6.5 Chrome/114.0.5735.243 Electron/25.3.1 Safari/537.36" etag="lUlsIQ2H3dBbFzUA-XSu" version="21.6.5" type="device">
  <diagram name="Page-1" id="iwZiXFeN8tusifFVu3Gx">
    <mxGraphModel dx="880" dy="545" grid="1" gridSize="10" guides="1" tooltips="1" connect="1" arrows="1" fold="1" page="1" pageScale="1" pageWidth="1169" pageHeight="827" math="0" shadow="0">
      <root>
        <mxCell id="0" />
        <mxCell id="1" parent="0" />
        <mxCell id="Gi_FY9o1xYVkdRvY4HZ5-1" value="«metaclass»&lt;br&gt;&lt;b&gt;Operation&lt;/b&gt;" style="shape=rect;html=1;whiteSpace=wrap;align=center;fontFamily=Helvetica;fontSize=11;fontColor=default;" vertex="1" parent="1">
          <mxGeometry width="110" height="60" as="geometry" />
        </mxCell>
        <mxCell id="Gi_FY9o1xYVkdRvY4HZ5-2" value="«metaclass»&lt;br&gt;&lt;b&gt;Behavior&lt;/b&gt;" style="shape=rect;html=1;whiteSpace=wrap;align=center;fontFamily=Helvetica;fontSize=11;fontColor=default;" vertex="1" parent="1">
          <mxGeometry x="140" width="110" height="60" as="geometry" />
        </mxCell>
        <mxCell id="Gi_FY9o1xYVkdRvY4HZ5-4" style="edgeStyle=none;shape=connector;rounded=0;orthogonalLoop=1;jettySize=auto;html=1;entryX=0.5;entryY=1;entryDx=0;entryDy=0;labelBackgroundColor=none;strokeColor=default;fontFamily=Helvetica;fontSize=11;fontColor=default;startArrow=none;startFill=0;endArrow=openThin;endFill=0;endSize=12;" edge="1" parent="1" source="Gi_FY9o1xYVkdRvY4HZ5-3" target="Gi_FY9o1xYVkdRvY4HZ5-1">
          <mxGeometry relative="1" as="geometry" />
        </mxCell>
        <mxCell id="Gi_FY9o1xYVkdRvY4HZ5-5" style="edgeStyle=none;shape=connector;rounded=0;orthogonalLoop=1;jettySize=auto;html=1;entryX=0.5;entryY=1;entryDx=0;entryDy=0;labelBackgroundColor=none;strokeColor=default;fontFamily=Helvetica;fontSize=11;fontColor=default;startArrow=none;startFill=0;endArrow=openThin;endFill=0;endSize=12;" edge="1" parent="1" source="Gi_FY9o1xYVkdRvY4HZ5-3" target="Gi_FY9o1xYVkdRvY4HZ5-2">
          <mxGeometry relative="1" as="geometry" />
        </mxCell>
        <mxCell id="Gi_FY9o1xYVkdRvY4HZ5-3" value="«stereotypes»&lt;br&gt;&lt;b&gt;TestCase&lt;/b&gt;" style="shape=rect;html=1;whiteSpace=wrap;align=center;fontFamily=Helvetica;fontSize=11;fontColor=default;" vertex="1" parent="1">
          <mxGeometry x="70" y="110" width="110" height="60" as="geometry" />
        </mxCell>
        <mxCell id="Gi_FY9o1xYVkdRvY4HZ5-6" value="&lt;b&gt;Figure 12.16 Example of Multiple Metaclass Extension&lt;/b&gt;" style="text;html=1;align=left;verticalAlign=middle;resizable=0;points=[];autosize=1;strokeColor=none;fillColor=none;fontSize=11;fontFamily=Helvetica;fontColor=default;" vertex="1" parent="1">
          <mxGeometry y="170" width="310" height="30" as="geometry" />
        </mxCell>
      </root>
    </mxGraphModel>
  </diagram>
</mxfile>
